<svg viewBox="0 0 200 200" xmlns="http://www.w3.org/2000/svg">
  <path fill="#724ea8" d="M39.5,-68.8C53.2,-60.4,67.7,-54,77.7,-42.8C87.8,-31.6,93.4,-15.8,94,0.3C94.6,16.5,90.2,33,82,47.4C73.8,61.8,61.8,74,47.5,78.3C33.2,82.5,16.6,78.8,0.1,78.6C-16.4,78.4,-32.8,81.8,-45,76.4C-57.3,70.9,-65.3,56.7,-70.2,42.5C-75,28.3,-76.5,14.1,-78.5,-1.1C-80.4,-16.4,-82.7,-32.7,-76.5,-44.5C-70.2,-56.2,-55.4,-63.3,-41.3,-71.4C-27.1,-79.5,-13.6,-88.5,-0.3,-87.9C12.9,-87.3,25.8,-77.1,39.5,-68.8Z" transform="translate(100 100)" />
</svg>