<svg viewBox="0 0 200 200" xmlns="http://www.w3.org/2000/svg">
  <path fill="#724EA8" d="M39.3,-68.4C50.8,-61.5,59.8,-50.6,68.8,-38.5C77.8,-26.5,86.9,-13.2,87.9,0.6C89,14.5,82.1,28.9,72.6,40.1C63,51.3,50.9,59.3,38.4,67.2C25.9,75.1,12.9,82.9,-0.7,84.1C-14.3,85.4,-28.7,79.9,-41,71.9C-53.4,63.9,-63.7,53.3,-69.2,40.9C-74.7,28.5,-75.3,14.3,-77.3,-1.1C-79.3,-16.6,-82.6,-33.1,-77.6,-46.4C-72.6,-59.6,-59.3,-69.5,-44.9,-74.8C-30.6,-80.1,-15.3,-80.7,-0.7,-79.5C13.9,-78.3,27.9,-75.3,39.3,-68.4Z" transform="translate(100 100)" />
</svg>