<svg viewBox="0 0 200 200" xmlns="http://www.w3.org/2000/svg">
  <path fill="#724EA8" d="M43.1,-73.9C55.9,-67.2,66.4,-55.8,72.7,-42.7C79,-29.6,81.1,-14.8,81.5,0.2C81.8,15.2,80.4,30.4,73.5,42.5C66.6,54.7,54.4,63.8,41.2,69.2C28.1,74.6,14,76.2,-1,77.9C-16,79.5,-31.9,81.3,-45.4,76C-58.8,70.8,-69.7,58.7,-75.6,44.8C-81.5,31,-82.4,15.5,-83.2,-0.4C-83.9,-16.4,-84.5,-32.7,-78.3,-46C-72.1,-59.4,-59.1,-69.6,-44.9,-75.5C-30.8,-81.4,-15.4,-82.9,-0.1,-82.7C15.1,-82.5,30.3,-80.6,43.1,-73.9Z" transform="translate(100 100)" />
</svg>