<svg viewBox="0 0 200 200" xmlns="http://www.w3.org/2000/svg">
  <path fill="#724EA8" d="M44.4,-77.3C58.2,-68.8,70.8,-58.5,76.5,-45.3C82.3,-32.1,81.3,-16,80.4,-0.5C79.5,15,78.8,30,73,43.3C67.3,56.6,56.7,68.2,43.7,74.7C30.7,81.3,15.3,82.8,1.1,80.9C-13.1,79,-26.3,73.6,-37.7,66.1C-49.1,58.6,-58.7,49.1,-66.1,37.7C-73.5,26.3,-78.5,13.2,-80.8,-1.3C-83.1,-15.8,-82.7,-31.7,-75.1,-42.6C-67.5,-53.6,-52.8,-59.8,-39.1,-68.4C-25.4,-77,-12.7,-88.1,1.3,-90.3C15.2,-92.5,30.5,-85.8,44.4,-77.3Z" transform="translate(100 100)" />
</svg>