<svg viewBox="0 0 200 200" xmlns="http://www.w3.org/2000/svg">
  <path fill="#724EA8" d="M42.3,-73.3C56,-65.3,69,-56.4,76.8,-44C84.5,-31.6,86.8,-15.8,85.2,-0.9C83.7,14,78.1,28,70.3,40.1C62.4,52.2,52.2,62.5,40.1,70C28,77.4,14,82.1,0.5,81.3C-13.1,80.5,-26.2,74.2,-38.2,66.8C-50.3,59.3,-61.4,50.6,-70.7,39.2C-79.9,27.9,-87.2,14,-88.1,-0.5C-89.1,-15,-83.6,-30.1,-75.6,-43.5C-67.5,-56.9,-57,-68.6,-44,-77C-31,-85.4,-15.5,-90.4,-0.6,-89.4C14.3,-88.4,28.6,-81.3,42.3,-73.3Z" transform="translate(100 100)" />
</svg>