<svg viewBox="0 0 200 200" xmlns="http://www.w3.org/2000/svg">
  <path fill="#724EA8" d="M40.5,-68.7C54.5,-62,69.4,-55.3,77.1,-43.9C84.9,-32.4,85.5,-16.2,84.5,-0.6C83.5,15.1,80.9,30.2,73.3,41.7C65.6,53.3,52.9,61.4,39.8,67C26.7,72.5,13.4,75.5,-0.1,75.8C-13.7,76,-27.3,73.5,-38.8,67.1C-50.4,60.6,-59.7,50.3,-67.7,38.4C-75.6,26.6,-82.1,13.3,-83.2,-0.6C-84.3,-14.5,-79.9,-29.1,-72.5,-41.9C-65.2,-54.8,-54.9,-66.1,-42.3,-73.6C-29.8,-81.1,-14.9,-84.9,-0.8,-83.5C13.2,-82,26.4,-75.3,40.5,-68.7Z" transform="translate(100 100)" />
</svg>