<svg viewBox="0 0 200 200" xmlns="http://www.w3.org/2000/svg">
  <path fill="#724EA8" d="M42.6,-73.4C55,-66.5,64.9,-54.9,73.7,-41.8C82.6,-28.8,90.3,-14.4,90.5,0.1C90.7,14.7,83.5,29.3,74,41.3C64.6,53.3,53,62.5,40.3,69.8C27.6,77.1,13.8,82.4,-1.3,84.6C-16.4,86.9,-32.8,86.1,-46.7,79.5C-60.6,72.9,-72,60.5,-76.3,46.3C-80.7,32.1,-78,16,-76,1.2C-74,-13.7,-72.5,-27.4,-66.3,-38.4C-60.1,-49.4,-49.2,-57.8,-37.3,-65C-25.5,-72.3,-12.7,-78.4,1.2,-80.4C15,-82.4,30.1,-80.3,42.6,-73.4Z" transform="translate(100 100)" />
</svg>