<svg viewBox="0 0 200 200" xmlns="http://www.w3.org/2000/svg">
  <path fill="#724EA8" d="M45.5,-77.6C59,-70.9,70.1,-58.9,77.3,-45.1C84.5,-31.2,87.8,-15.6,85.2,-1.5C82.6,12.6,73.9,25.1,65.3,36.5C56.7,48,48.1,58.2,37.3,67.2C26.4,76.2,13.2,83.9,-1.7,86.8C-16.6,89.8,-33.2,88.1,-47.3,80.9C-61.3,73.8,-72.7,61.2,-80.9,46.8C-89.1,32.4,-94.1,16.2,-92.5,1C-90.8,-14.2,-82.4,-28.5,-73,-40.9C-63.7,-53.3,-53.4,-63.9,-41,-71.3C-28.7,-78.7,-14.3,-82.9,0.8,-84.3C16,-85.7,31.9,-84.3,45.5,-77.6Z" transform="translate(100 100)" />
</svg>