<svg viewBox="0 0 200 200" xmlns="http://www.w3.org/2000/svg">
  <path fill="#724EA8" d="M46.7,-81.3C60.5,-72.8,71.7,-60.4,78.3,-46.2C84.9,-31.9,86.8,-16,86,-0.4C85.2,15.1,81.8,30.2,74.1,42.4C66.4,54.6,54.3,63.9,41.2,71.1C28.2,78.3,14.1,83.5,-0.2,83.9C-14.5,84.2,-29,79.8,-42.8,73C-56.5,66.1,-69.5,56.9,-78.3,44.3C-87,31.8,-91.4,15.9,-91.5,-0.1C-91.6,-16,-87.4,-32,-78.4,-44.2C-69.5,-56.3,-55.8,-64.6,-41.9,-73C-28.1,-81.4,-14,-90,1.2,-92C16.4,-94.1,32.8,-89.7,46.7,-81.3Z" transform="translate(100 100)" />
</svg>