<svg viewBox="0 0 200 200" xmlns="http://www.w3.org/2000/svg">
  <path fill="#724EA8" d="M45.8,-80.3C58.6,-71.9,67.7,-58.1,66.5,-43.9C65.2,-29.6,53.6,-14.8,48.8,-2.8C43.9,9.2,45.9,18.4,44.6,28.3C43.3,38.2,38.8,48.8,30.8,51.8C22.9,54.7,11.4,50,-1.8,53.1C-15.1,56.2,-30.1,67.2,-39.3,65C-48.5,62.8,-51.8,47.3,-56.9,34.2C-62.1,21.2,-69.2,10.6,-67.4,1C-65.6,-8.5,-54.9,-17,-45.6,-22.9C-36.3,-28.8,-28.4,-32.1,-21,-43.7C-13.7,-55.2,-6.8,-74.9,4.8,-83.3C16.5,-91.7,33,-88.7,45.8,-80.3Z" transform="translate(100 100)" />
</svg>