<svg viewBox="0 0 200 200" xmlns="http://www.w3.org/2000/svg">
  <path fill="#724EA8" d="M46,-77C59.7,-71.8,70.8,-59.6,73.3,-45.6C75.8,-31.5,69.6,-15.8,63.5,-3.6C57.3,8.6,51.1,17.3,46.1,27C41.1,36.6,37.3,47.3,29.8,59.3C22.3,71.3,11.2,84.5,2.1,80.9C-6.9,77.2,-13.9,56.6,-19.6,43.6C-25.2,30.6,-29.6,25.1,-36.1,19.1C-42.5,13.1,-51.1,6.5,-54.3,-1.9C-57.5,-10.3,-55.4,-20.5,-50,-28.4C-44.6,-36.3,-35.9,-41.7,-27.1,-49.6C-18.2,-57.5,-9.1,-67.8,3.5,-74C16.2,-80.1,32.4,-82.1,46,-77Z" transform="translate(100 100)" />
</svg>