<svg viewBox="0 0 200 200" xmlns="http://www.w3.org/2000/svg">
  <path fill="#724EA8" d="M38.9,-72.6C47.9,-62.1,50.9,-46.6,58.3,-33.7C65.6,-20.8,77.2,-10.4,82.1,2.8C86.9,16,85,32,76.3,42.5C67.6,53.1,52,58.1,38.2,57.5C24.3,56.9,12.2,50.6,1.3,48.4C-9.6,46.3,-19.3,48.2,-30.7,47.4C-42.1,46.6,-55.3,43.1,-59.8,34.7C-64.3,26.4,-60.2,13.2,-61.6,-0.8C-63,-14.8,-70,-29.6,-66,-38.9C-62.1,-48.3,-47.2,-52.1,-34.4,-60.4C-21.5,-68.6,-10.8,-81.3,2.1,-84.9C14.9,-88.5,29.9,-83,38.9,-72.6Z" transform="translate(100 100)" />
</svg>