<svg viewBox="0 0 200 200" xmlns="http://www.w3.org/2000/svg">
  <path fill="#724EA8" d="M28.3,-50.6C41,-41.7,58.7,-42.9,63,-36.1C67.4,-29.4,58.4,-14.7,54.2,-2.4C50,9.9,50.7,19.7,45.8,25.6C41,31.5,30.6,33.3,22.1,40C13.5,46.7,6.8,58.3,-4,65.1C-14.7,72,-29.3,74.1,-36.4,66.5C-43.5,59,-43.1,41.8,-50.5,29.1C-57.8,16.4,-73,8.2,-76.8,-2.2C-80.6,-12.6,-73.1,-25.2,-61.5,-30.7C-50,-36.1,-34.4,-34.4,-23.5,-44.4C-12.6,-54.4,-6.3,-76.1,0.7,-77.4C7.8,-78.7,15.6,-59.6,28.3,-50.6Z" transform="translate(100 100)" />
</svg>