<svg viewBox="0 0 200 200" xmlns="http://www.w3.org/2000/svg">
  <path fill="#724EA8" d="M43.3,-67.8C56.2,-67.4,67,-56.2,70.5,-43.1C73.9,-30,69.9,-15,62.7,-4.2C55.5,6.6,44.9,13.2,41,25.4C37,37.6,39.6,55.3,33.9,60.1C28.1,64.8,14.1,56.5,2.8,51.8C-8.5,47,-17.1,45.7,-30,45.1C-43,44.6,-60.3,44.7,-70.2,37.3C-80.1,29.9,-82.6,14.9,-81.4,0.7C-80.2,-13.6,-75.4,-27.2,-67.2,-37.4C-58.9,-47.6,-47.1,-54.4,-35.3,-55.5C-23.6,-56.5,-11.8,-51.8,1.7,-54.7C15.1,-57.6,30.3,-68.1,43.3,-67.8Z" transform="translate(100 100)" />
</svg>