<svg viewBox="0 0 200 200" xmlns="http://www.w3.org/2000/svg">
  <path fill="#724EA8" d="M21.5,-35.5C29.4,-32.6,38.5,-30.1,42.2,-24.2C45.8,-18.3,44,-9.2,44.3,0.2C44.7,9.6,47.2,19.1,47,31C46.9,42.9,44,57,35.7,65.1C27.4,73.3,13.7,75.5,1.8,72.3C-10,69.1,-20,60.6,-26.8,51.5C-33.6,42.5,-37.1,33,-44.1,24.3C-51.1,15.7,-61.5,7.8,-67.5,-3.5C-73.6,-14.8,-75.3,-29.6,-71.4,-43.7C-67.6,-57.9,-58.3,-71.3,-45.4,-71.3C-32.6,-71.3,-16.3,-58,-4.8,-49.7C6.8,-41.5,13.5,-38.3,21.5,-35.5Z" transform="translate(100 100)" />
</svg>