<svg viewBox="0 0 200 200" xmlns="http://www.w3.org/2000/svg">
  <path fill="#724EA8" d="M32.1,-56.5C45.7,-47.8,63.6,-47.4,70.2,-39.4C76.9,-31.3,72.4,-15.7,68.7,-2.2C64.9,11.3,61.8,22.6,56.3,32.7C50.8,42.7,42.7,51.4,32.9,56.9C23.1,62.4,11.6,64.6,2.1,61C-7.4,57.3,-14.7,47.8,-28.5,44.6C-42.3,41.4,-62.6,44.6,-69.7,38.3C-76.8,31.9,-70.6,16,-68.5,1.2C-66.5,-13.5,-68.4,-27.1,-64.9,-39.6C-61.3,-52,-52.3,-63.5,-40.6,-73.3C-28.8,-83,-14.4,-91.2,-2.6,-86.7C9.3,-82.3,18.5,-65.2,32.1,-56.5Z" transform="translate(100 100)" />
</svg>