<svg viewBox="0 0 200 200" xmlns="http://www.w3.org/2000/svg">
  <path fill="#724EA8" d="M28.5,-44.2C40.2,-42.6,55,-41.5,61.3,-34.2C67.6,-26.9,65.3,-13.5,66.1,0.5C67,14.5,71.1,28.9,68,41.7C64.9,54.6,54.7,65.8,42.2,70.6C29.6,75.4,14.8,73.8,-0.4,74.4C-15.5,75.1,-31.1,77.9,-40.5,71.3C-49.9,64.7,-53.2,48.7,-61.5,35.2C-69.9,21.8,-83.2,10.9,-80,1.9C-76.8,-7.2,-57,-14.3,-44.2,-19.9C-31.3,-25.5,-25.3,-29.6,-19.1,-34.2C-12.9,-38.9,-6.5,-44.3,1,-45.9C8.4,-47.6,16.8,-45.7,28.5,-44.2Z" transform="translate(100 100)" />
</svg>