<svg viewBox="0 0 200 200" xmlns="http://www.w3.org/2000/svg">
  <path fill="#724EA8" d="M31.3,-52.5C44,-46.9,60.1,-45.4,72,-37.4C84,-29.3,91.8,-14.7,89.7,-1.3C87.5,12.1,75.3,24.3,65.7,36.4C56.1,48.6,49.2,60.9,38.6,67.7C28.1,74.5,14.1,75.8,0.1,75.7C-14,75.6,-27.9,74.1,-41.7,69.2C-55.5,64.3,-69.2,56,-72.9,44C-76.7,31.9,-70.6,15.9,-70.4,0.1C-70.2,-15.7,-75.9,-31.4,-69.3,-38.6C-62.7,-45.9,-43.9,-44.6,-30.3,-49.6C-16.7,-54.7,-8.4,-65.9,0.5,-66.7C9.3,-67.6,18.6,-58,31.3,-52.5Z" transform="translate(100 100)" />
</svg>