<svg viewBox="0 0 200 200" xmlns="http://www.w3.org/2000/svg">
  <path fill="#724EA8" d="M43.1,-68.9C53.5,-68.6,58,-52.3,58.9,-38.2C59.8,-24,57,-12,60.5,2C64,16.1,73.7,32.1,68.4,38.6C63.1,45,42.7,41.8,28.8,49.2C14.9,56.6,7.4,74.6,-0.2,75C-7.9,75.5,-15.8,58.3,-26.8,49.2C-37.7,40.1,-51.7,39,-57,32.1C-62.3,25.3,-58.9,12.6,-54.2,2.7C-49.5,-7.2,-43.4,-14.4,-41.4,-26.9C-39.3,-39.3,-41.3,-57.1,-35.1,-59.9C-28.8,-62.7,-14.4,-50.4,0.9,-52.1C16.3,-53.7,32.6,-69.3,43.1,-68.9Z" transform="translate(100 100)" />
</svg>