<svg viewBox="0 0 200 200" xmlns="http://www.w3.org/2000/svg">
  <path fill="#724EA8" d="M25.5,-47.8C34.8,-38.9,45.1,-35.4,50.3,-28.4C55.6,-21.3,55.8,-10.7,57.9,1.2C60,13.1,64,26.2,62.7,40.1C61.5,54.1,54.9,68.9,43.6,78.2C32.2,87.5,16.1,91.3,1.2,89.3C-13.8,87.3,-27.6,79.5,-34.1,67.4C-40.5,55.3,-39.7,38.8,-48.7,26.9C-57.7,15,-76.6,7.5,-76.2,0.2C-75.9,-7.1,-56.5,-14.3,-48.1,-27.3C-39.7,-40.3,-42.4,-59.1,-36.2,-69.8C-30,-80.5,-15,-83,-3.4,-77C8.2,-71.1,16.3,-56.7,25.5,-47.8Z" transform="translate(100 100)" />
</svg>